PathFileType	4	(X/Y/Z)	C:\Users\Public\Documents\Vicon Data\AADs Machine\Fixing_spring_distance_56\90_lb_Spring\Brian_90_01.trc
DataRate	CameraRate	NumFrames	NumMarkers	Units	OrigDataRate	OrigDataStartFrame	OrigNumFrames
100.0	100.0	45	8	mm	100.0	652	1302	
Frame#	Time	SpringTop			MMAL			LMAL			Shank			Heel			Foot			Toe			MP5			
		X1	Y1	Z1	X2	Y2	Z2	X3	Y3	Z3	X4	Y4	Z4	X5	Y5	Z5	X6	Y6	Z6	X7	Y7	Z7	X8	Y8	Z8	
652	6.51	-334.80783	168.86575	-614.65112	-287.0278	103.65829	-674.40509	-269.90488	111.77258	-550.06329	-154.62775	240.42012	-617.88135	-354.24658	90.545616	-608.03558	-178.19118	57.373207	-613.62091	-104.28621	36.921246	-629.427	-164.37534	38.780602	-561.65125
653	6.52	-334.81027	168.95477	-614.63037	-286.9765	103.70049	-674.40039	-269.95795	111.81973	-550.04193	-154.60197	240.40498	-617.75482	-354.25119	90.652229	-608.05402	-178.19385	57.420006	-613.61005	-104.30221	36.974926	-629.39349	-164.38684	38.80883	-561.64435
654	6.53	-334.74243	169.00993	-614.57501	-286.94391	103.76095	-674.37036	-269.97418	111.75273	-549.95538	-154.54959	240.30022	-617.60767	-354.04535	90.526939	-607.76312	-178.19203	57.392044	-613.58331	-104.28185	36.927116	-629.39191	-164.37146	38.773796	-561.63513
655	6.54	-334.70386	169.01146	-614.52832	-286.93665	103.78247	-674.35492	-269.97327	111.73102	-549.91364	-154.41846	240.1857	-617.48932	-354.00986	90.445251	-607.73242	-178.16742	57.372612	-613.57349	-104.27672	36.920746	-629.37671	-164.36929	38.75238	-561.62732
656	6.55	-334.62347	169.09111	-614.54401	-286.94363	103.82977	-674.31262	-269.95227	111.70959	-549.90259	-154.35966	240.09579	-617.39526	-354.0451	90.518555	-607.71051	-178.19017	57.399632	-613.5545	-104.28159	36.941746	-629.35956	-164.38126	38.744217	-561.6123
657	6.56	-334.53986	169.22754	-614.4718	-286.88144	103.89089	-674.29211	-269.96045	111.75305	-549.85175	-154.22755	240.00005	-617.23535	-354.29388	90.730446	-607.93738	-178.17542	57.428257	-613.55127	-104.29831	36.982662	-629.32123	-164.38492	38.771137	-561.58856
658	6.57	-334.41891	169.21513	-614.49817	-286.84756	103.89166	-674.27521	-269.88583	111.67328	-549.79913	-154.0002	239.84314	-617.13422	-354.21521	90.707458	-607.96375	-178.16109	57.390167	-613.54517	-104.26987	36.922913	-629.29236	-164.37328	38.711269	-561.59351
659	6.58	-334.2121	169.34248	-614.45319	-286.79901	103.97152	-674.24835	-269.8396	111.67905	-549.79828	-153.814	239.80066	-617.01404	-354.12756	90.755875	-607.96643	-178.13686	57.412548	-613.521	-104.2473	36.888474	-629.29315	-164.35922	38.703941	-561.59052
660	6.59	-333.74252	169.42273	-614.39362	-286.74796	104.03202	-674.20575	-269.83282	111.76518	-549.73077	-153.64964	239.78224	-616.86646	-354.10153	90.872589	-607.97235	-178.12233	57.473728	-613.50848	-104.25779	36.907372	-629.31091	-164.35088	38.727074	-561.5603
661	6.6	-333.72672	169.46971	-614.31091	-286.74966	104.07799	-674.19128	-269.82562	111.69892	-549.70337	-153.52194	239.66708	-616.73517	-353.87814	90.631653	-607.55414	-178.12531	57.445736	-613.49518	-104.25919	36.875862	-629.26892	-164.36548	38.712204	-561.53735
662	6.61	-333.59329	169.43471	-614.32904	-286.73959	104.02546	-674.19324	-269.84879	111.66771	-549.67627	-153.38173	239.46973	-616.65692	-353.8707	90.537926	-607.55505	-178.12448	57.42593	-613.50153	-104.23193	36.851067	-629.26929	-164.34607	38.670319	-561.56195
663	6.62	-333.59198	169.54527	-614.36115	-286.75476	104.04957	-674.15979	-269.85205	111.66349	-549.65259	-153.24831	239.39552	-616.56549	-353.92581	90.609627	-607.56659	-178.1382	57.449551	-613.4942	-104.25326	36.922493	-629.24689	-164.37859	38.711105	-561.54712
664	6.63	-333.78479	169.65656	-614.34796	-286.71243	104.11523	-674.18427	-269.84311	111.68681	-549.64386	-152.98416	239.31825	-616.51306	-353.93497	90.656479	-607.58331	-178.12675	57.465031	-613.48566	-104.25935	36.920189	-629.24487	-164.36784	38.713261	-561.54272
665	6.64	-333.35632	169.65846	-614.34387	-286.7121	104.10236	-674.19104	-269.79797	111.6845	-549.62158	-152.82408	239.20059	-616.5061	-353.85873	90.611084	-607.53601	-178.11824	57.448483	-613.4917	-104.14466	37.083057	-629.36127	-164.34663	38.663849	-561.54736
666	6.65	-333.61411	169.75604	-614.41687	-286.70288	104.13799	-674.19403	-269.86215	111.75035	-549.67609	-152.69656	239.06848	-616.53265	-353.89258	90.656425	-607.55786	-178.10397	57.463898	-613.50116	-104.21643	36.91246	-629.26508	-164.36852	38.679337	-561.54382
667	6.66	-333.57224	169.82303	-614.44141	-286.7019	104.11821	-674.20142	-269.81766	111.73898	-549.67981	-152.50603	238.95407	-616.55542	-353.9198	90.710312	-607.56287	-178.13326	57.49649	-613.49164	-104.23322	36.931168	-629.2688	-164.35728	38.696747	-561.56451
668	6.67	-333.49805	169.82314	-614.49066	-286.75607	104.07372	-674.20398	-269.83591	111.69013	-549.66809	-152.43797	238.76204	-616.53754	-353.83908	90.5765	-607.47314	-178.13016	57.483723	-613.47815	-104.22939	36.914848	-629.25854	-164.33827	38.697449	-561.55438
669	6.68	-333.46838	169.85468	-614.52356	-286.73157	104.03156	-674.23059	-269.90515	111.73423	-549.70203	-152.3613	238.6313	-616.61938	-353.80008	90.494026	-607.46411	-178.14037	57.463192	-613.50958	-104.23598	36.891575	-629.25873	-164.36368	38.703819	-561.53845
670	6.69	-333.46375	169.95378	-614.5719	-286.75363	104.0748	-674.2652	-269.91211	111.80437	-549.73932	-152.27655	238.56209	-616.65881	-353.82269	90.59668	-607.4361	-178.1489	57.501266	-613.49884	-104.22297	36.925098	-629.23694	-164.38509	38.727203	-561.55865
671	6.7	-333.34232	169.99805	-614.59674	-286.71414	104.09876	-674.2995	-269.88672	111.81657	-549.75378	-152.16437	238.46916	-616.72687	-353.69577	90.626617	-607.42444	-178.11404	57.487843	-613.50977	-104.2026	36.898235	-629.25061	-164.35469	38.711483	-561.55927
672	6.71	-333.25565	170.01009	-614.61963	-286.6991	104.08554	-674.30756	-269.83643	111.83978	-549.77271	-152.03662	238.36646	-616.81232	-354.06082	90.993088	-607.9978	-178.12991	57.476902	-613.52472	-104.13114	37.064777	-629.35925	-164.33868	38.720497	-561.55627
673	6.72	-333.22995	170.12357	-614.70459	-286.65912	104.10171	-674.35052	-269.83521	111.9034	-549.81305	-151.92522	238.33331	-616.88751	-354.09708	91.124451	-608.10803	-178.0901	57.500587	-613.54474	-104.14521	37.057034	-629.41052	-164.34079	38.728992	-561.57196
674	6.73	-333.28201	170.20137	-614.76404	-286.65051	104.08732	-674.38776	-269.81528	111.95941	-549.86157	-151.8212	238.28262	-616.94427	-354.0665	91.158028	-608.08887	-178.09227	57.518745	-613.55536	-104.2096	36.829666	-629.27155	-164.3335	38.743893	-561.58575
675	6.74	-333.15738	170.15303	-614.80127	-286.67822	104.05269	-674.41449	-269.80569	111.94974	-549.87561	-151.73053	238.17764	-617.0379	-354.07797	91.100945	-608.06982	-178.09694	57.495872	-613.55896	-104.13046	37.028748	-629.41376	-164.3221	38.748032	-561.58948
676	6.75	-333.19162	170.19351	-614.8634	-286.71353	104.00683	-674.41083	-269.81961	111.97465	-549.91217	-151.67018	238.11357	-617.11426	-354.09146	91.106003	-608.08929	-178.1123	57.477097	-613.56409	-104.14453	37.048561	-629.42804	-164.33742	38.754135	-561.58435
677	6.76	-333.11874	170.21014	-614.91083	-286.67673	104.03497	-674.47253	-269.79877	112.01482	-549.96326	-151.53714	238.09116	-617.16901	-354.08426	91.141151	-608.14526	-178.10269	57.508041	-613.58313	-104.18922	36.818298	-629.30353	-164.33424	38.763142	-561.59387
678	6.77	-333.08646	170.23389	-614.9245	-286.66489	104.02934	-674.5047	-269.78	111.99393	-549.97864	-151.46138	238.02654	-617.23993	-354.02463	91.156128	-608.15765	-178.10175	57.49173	-613.57153	-104.20102	36.812622	-629.26062	-164.3356	38.757904	-561.61108
679	6.78	-333.06589	170.25476	-614.97125	-286.68039	103.9911	-674.46289	-269.74588	112.07909	-549.99939	-151.39159	238.01231	-617.27795	-354.0054	91.152405	-608.14398	-178.10027	57.484795	-613.5918	-104.17718	36.812286	-629.27429	-164.3315	38.777836	-561.61877
680	6.79	-332.93176	170.28458	-614.9751	-286.62613	104.00562	-674.50848	-269.69202	112.09127	-550.03845	-151.26158	237.95818	-617.37976	-354.03198	91.23484	-608.14703	-178.08952	57.489578	-613.59973	-104.15574	36.807072	-629.28705	-164.30847	38.785721	-561.61816
681	6.8	-332.94067	170.30713	-615.00903	-286.49857	104.40051	-674.94714	-269.72238	112.11959	-550.06305	-151.17918	237.91548	-617.41943	-353.96136	91.258369	-608.16193	-178.08882	57.495197	-613.59174	-104.16905	36.784111	-629.3009	-164.31889	38.785988	-561.62866
682	6.81	-332.91098	170.28835	-615.02161	-286.52493	104.35888	-674.97327	-269.7124	112.11299	-550.07629	-151.11998	237.82927	-617.45068	-353.95013	91.207314	-608.18945	-178.10548	57.480988	-613.6131	-104.16869	36.73711	-629.29266	-164.31244	38.78302	-561.64655
683	6.82	-332.89478	170.36873	-615.04333	-286.66577	103.98914	-674.52655	-269.73721	112.12863	-550.08685	-151.06796	237.78664	-617.46661	-354.01855	91.266884	-608.20343	-178.12138	57.514774	-613.6062	-104.19418	36.740437	-629.27722	-164.33507	38.790379	-561.62872
684	6.83	-332.83975	170.38579	-615.07996	-286.49329	104.39766	-674.99194	-269.69934	112.13319	-550.11652	-151.09918	237.68817	-617.51019	-353.97412	91.248947	-608.21588	-178.1122	57.526741	-613.6264	-104.17628	36.717983	-629.28284	-164.31331	38.804775	-561.63281
685	6.84	-332.82681	170.39394	-615.06921	-286.50125	104.37911	-674.99274	-269.70981	112.13547	-550.05914	-150.97289	237.68774	-617.474	-353.94519	91.267815	-608.21594	-178.10281	57.493507	-613.5921	-104.19379	36.681129	-629.23114	-164.3382	38.782242	-561.61603
686	6.85	-332.79712	170.39334	-615.07153	-286.48798	104.3963	-674.99231	-269.70508	112.15289	-550.07391	-150.97099	237.69463	-617.45673	-353.9519	91.278427	-608.22827	-178.08376	57.508499	-613.60297	-104.17594	36.660137	-629.22504	-164.32045	38.779099	-561.62567
687	6.86	-332.78427	170.43501	-615.07092	-286.44388	104.44927	-674.98328	-269.67926	112.19665	-550.05481	-150.95357	237.73874	-617.4212	-353.95502	91.346382	-608.21765	-178.07294	57.544285	-613.5954	-104.18272	36.670742	-629.19293	-164.30931	38.816204	-561.62
688	6.87	-332.76767	170.42696	-614.9978	-286.42673	104.47184	-674.97198	-269.68503	112.15662	-550.02014	-150.92499	237.70007	-617.34314	-353.95996	91.329758	-608.11469	-178.08598	57.518105	-613.59039	-104.20124	36.591927	-629.15363	-164.31187	38.77956	-561.60767
689	6.88	-332.78973	170.41736	-614.95691	-286.43762	104.49336	-674.96826	-269.66724	112.11109	-550.01453	-150.90674	237.69879	-617.24963	-353.93277	91.306847	-608.14069	-178.08571	57.502083	-613.58148	-104.21903	36.572407	-629.12732	-164.31816	38.774879	-561.5932
690	6.89	-332.69855	170.44342	-614.96027	-286.55579	104.09525	-674.48669	-269.68344	112.10618	-549.98804	-150.86682	237.68605	-617.18469	-353.96036	91.341438	-608.14386	-178.06665	57.51202	-613.58069	-104.20943	36.569305	-629.12262	-164.29771	38.758739	-561.60187
691	6.9	-332.69894	170.4742	-614.8941	-286.56638	104.18067	-674.48694	-269.69614	112.12257	-549.94733	-150.84793	237.6935	-617.06976	-353.92856	91.392525	-608.10693	-178.07217	57.545387	-613.5592	-104.17828	36.586266	-629.1217	-164.30702	38.771244	-561.5658
692	6.91	-332.73462	170.48447	-614.85974	-286.52936	104.21546	-674.4538	-269.66251	112.13098	-549.88055	-150.75298	237.73509	-616.98224	-353.92197	91.387619	-608.07056	-178.07039	57.527306	-613.55402	-104.19714	36.523373	-629.08911	-164.298	38.746025	-561.56091
693	6.92	-332.68356	170.45142	-614.86658	-286.38	104.55521	-674.89496	-269.66312	112.07428	-549.90118	-150.77423	237.7394	-616.91064	-353.90265	91.36972	-608.15808	-178.07414	57.521732	-613.56085	-104.22229	36.527687	-629.10187	-164.29034	38.715824	-561.59326
694	6.93	-332.71872	170.47581	-614.80432	-286.48938	104.21426	-674.43597	-269.68857	112.11298	-549.87836	-150.81029	237.78038	-616.84613	-353.94275	91.40551	-608.1026	-178.07867	57.535065	-613.54199	-104.19961	36.563953	-629.07861	-164.30867	38.75148	-561.57678
695	6.94	-332.73422	170.44051	-614.76758	-286.55182	104.20586	-674.38287	-269.73325	112.03556	-549.80627	-150.83954	237.76254	-616.7467	-353.89127	91.34124	-608.08942	-178.06885	57.53587	-613.51306	-104.17933	36.559681	-629.05017	-164.3132	38.714241	-561.5495
696	6.95	-332.79617	170.45357	-614.72699	-286.53894	104.22715	-674.36304	-269.74585	112.04372	-549.76965	-150.86501	237.82356	-616.6499	-353.96375	91.378944	-608.08551	-178.08723	57.559349	-613.50885	-104.20812	36.586647	-629.05188	-164.332	38.72179	-561.54553
